# MagicaVoxel @ Ephtracy

# group
o 

# material
mtllib road.mtl
usemtl palette

# normals
vn -1 0 0
vn 1 0 0
vn 0 0 1
vn 0 0 -1
vn 0 -1 0
vn 0 1 0

# texcoords
vt 0.162109 0.5
vt 0.962891 0.5
vt 0.990234 0.5

# verts
v 0 2 0
v 0 2 -0.2
v 0 2 -0.3
v 0 2 -2.6
v 0 2 -2.8
v 0 2 -3.2
v 0 2 -3.4
v 0 2 -5.7
v 0 2 -5.8
v 0 2 -6
v 0 2.1 0
v 0 2.1 -0.2
v 0 2.1 -0.3
v 0 2.1 -2.6
v 0 2.1 -2.8
v 0 2.1 -3.2
v 0 2.1 -3.4
v 0 2.1 -5.7
v 0 2.1 -5.8
v 0 2.1 -6
v 8 2 0
v 8 2 -0.2
v 8 2 -0.3
v 8 2 -2.6
v 8 2 -2.8
v 8 2 -3.2
v 8 2 -3.4
v 8 2 -5.7
v 8 2 -5.8
v 8 2 -6
v 8 2.1 0
v 8 2.1 -0.2
v 8 2.1 -0.3
v 8 2.1 -2.6
v 8 2.1 -2.8
v 8 2.1 -3.2
v 8 2.1 -3.4
v 8 2.1 -5.7
v 8 2.1 -5.8
v 8 2.1 -6
v 0 2 0
v 0 2.1 0
v 8 2 0
v 8 2.1 0
v 0 2 -6
v 0 2.1 -6
v 8 2 -6
v 8 2.1 -6
v 0 2 0
v 8 2 0
v 0 2 -0.2
v 8 2 -0.2
v 0 2 -0.3
v 8 2 -0.3
v 0 2 -2.6
v 8 2 -2.6
v 0 2 -2.8
v 8 2 -2.8
v 0 2 -3.2
v 8 2 -3.2
v 0 2 -3.4
v 8 2 -3.4
v 0 2 -5.7
v 8 2 -5.7
v 0 2 -5.8
v 8 2 -5.8
v 0 2 -6
v 8 2 -6
v 0 2.1 0
v 8 2.1 0
v 0 2.1 -0.2
v 8 2.1 -0.2
v 0 2.1 -0.3
v 8 2.1 -0.3
v 0 2.1 -2.6
v 8 2.1 -2.6
v 0 2.1 -2.8
v 8 2.1 -2.8
v 0 2.1 -3.2
v 8 2.1 -3.2
v 0 2.1 -3.4
v 8 2.1 -3.4
v 0 2.1 -5.7
v 8 2.1 -5.7
v 0 2.1 -5.8
v 8 2.1 -5.8
v 0 2.1 -6
v 8 2.1 -6

# faces
f 11/3/1 2/3/1 1/3/1
f 12/2/1 3/2/1 2/2/1
f 12/3/1 2/3/1 11/3/1
f 13/3/1 4/3/1 3/3/1
f 13/2/1 3/2/1 12/2/1
f 14/1/1 5/1/1 4/1/1
f 14/3/1 4/3/1 13/3/1
f 15/3/1 6/3/1 5/3/1
f 15/1/1 5/1/1 14/1/1
f 16/1/1 7/1/1 6/1/1
f 16/3/1 6/3/1 15/3/1
f 17/3/1 8/3/1 7/3/1
f 17/1/1 7/1/1 16/1/1
f 18/2/1 9/2/1 8/2/1
f 18/3/1 8/3/1 17/3/1
f 19/3/1 10/3/1 9/3/1
f 19/2/1 9/2/1 18/2/1
f 20/3/1 10/3/1 19/3/1
f 21/3/2 22/3/2 31/3/2
f 22/2/2 23/2/2 32/2/2
f 31/3/2 22/3/2 32/3/2
f 23/3/2 24/3/2 33/3/2
f 32/2/2 23/2/2 33/2/2
f 24/1/2 25/1/2 34/1/2
f 33/3/2 24/3/2 34/3/2
f 25/3/2 26/3/2 35/3/2
f 34/1/2 25/1/2 35/1/2
f 26/1/2 27/1/2 36/1/2
f 35/3/2 26/3/2 36/3/2
f 27/3/2 28/3/2 37/3/2
f 36/1/2 27/1/2 37/1/2
f 28/2/2 29/2/2 38/2/2
f 37/3/2 28/3/2 38/3/2
f 29/3/2 30/3/2 39/3/2
f 38/2/2 29/2/2 39/2/2
f 39/3/2 30/3/2 40/3/2
f 43/3/3 42/3/3 41/3/3
f 44/3/3 42/3/3 43/3/3
f 45/3/4 46/3/4 47/3/4
f 47/3/4 46/3/4 48/3/4
f 51/3/5 50/3/5 49/3/5
f 52/3/5 50/3/5 51/3/5
f 53/2/5 52/2/5 51/2/5
f 54/2/5 52/2/5 53/2/5
f 55/3/5 54/3/5 53/3/5
f 56/3/5 54/3/5 55/3/5
f 57/1/5 56/1/5 55/1/5
f 58/1/5 56/1/5 57/1/5
f 59/3/5 58/3/5 57/3/5
f 60/3/5 58/3/5 59/3/5
f 61/1/5 60/1/5 59/1/5
f 62/1/5 60/1/5 61/1/5
f 63/3/5 62/3/5 61/3/5
f 64/3/5 62/3/5 63/3/5
f 65/2/5 64/2/5 63/2/5
f 66/2/5 64/2/5 65/2/5
f 67/3/5 66/3/5 65/3/5
f 68/3/5 66/3/5 67/3/5
f 69/3/6 70/3/6 71/3/6
f 71/3/6 70/3/6 72/3/6
f 71/2/6 72/2/6 73/2/6
f 73/2/6 72/2/6 74/2/6
f 73/3/6 74/3/6 75/3/6
f 75/3/6 74/3/6 76/3/6
f 75/1/6 76/1/6 77/1/6
f 77/1/6 76/1/6 78/1/6
f 77/3/6 78/3/6 79/3/6
f 79/3/6 78/3/6 80/3/6
f 79/1/6 80/1/6 81/1/6
f 81/1/6 80/1/6 82/1/6
f 81/3/6 82/3/6 83/3/6
f 83/3/6 82/3/6 84/3/6
f 83/2/6 84/2/6 85/2/6
f 85/2/6 84/2/6 86/2/6
f 85/3/6 86/3/6 87/3/6
f 87/3/6 86/3/6 88/3/6
